<svg xmlns="http://www.w3.org/2000/svg" viewBox="0 0 1700 1080" width="1700" height="1080" role="img" aria-labelledby="title desc">
<title id="title">Enterprise context</title>
<desc id="desc">Veoveo system boundary, external performers, installation-owned dependencies, and principal exchanges.</desc>
<defs>
<marker id="arrow" viewBox="0 0 10 10" refX="9" refY="5" markerWidth="7" markerHeight="7" orient="auto-start-reverse"><path d="M 0 0 L 10 5 L 0 10 z" fill="#21465b"/></marker>
<marker id="arrow-muted" viewBox="0 0 10 10" refX="9" refY="5" markerWidth="7" markerHeight="7" orient="auto-start-reverse"><path d="M 0 0 L 10 5 L 0 10 z" fill="#687983"/></marker>
<filter id="shadow" x="-10%" y="-10%" width="120%" height="130%"><feDropShadow dx="0" dy="2" stdDeviation="3" flood-color="#0b2534" flood-opacity="0.12"/></filter>
</defs>
<style>
.title{font:700 30px Arial,Helvetica,sans-serif;fill:#102f40}.subtitle{font:400 15px Arial,Helvetica,sans-serif;fill:#4d626d}.label{font:700 14px Arial,Helvetica,sans-serif;fill:#102f40;letter-spacing:.04em}.node-title{font:700 17px Arial,Helvetica,sans-serif;fill:#102f40}.node-id{font:700 12px Arial,Helvetica,sans-serif;fill:#176b68;letter-spacing:.04em}.body{font:400 14px Arial,Helvetica,sans-serif;fill:#2d4653}.small{font:400 12px Arial,Helvetica,sans-serif;fill:#526a76}.tiny{font:400 10px Arial,Helvetica,sans-serif;fill:#526a76}.inverse{fill:#ffffff}.edge{stroke:#21465b;stroke-width:2.2;fill:none;marker-end:url(#arrow)}.edge-muted{stroke:#687983;stroke-width:1.6;fill:none;marker-end:url(#arrow-muted)}.edge-dash{stroke:#687983;stroke-width:1.5;stroke-dasharray:7 6;fill:none;marker-end:url(#arrow-muted)}
</style>
<rect x="0" y="0" width="1700" height="1080" rx="0" fill="#f5f2eb" stroke="none" stroke-width="1" opacity="1"/>
<rect x="0" y="0" width="1700" height="82" rx="0" fill="#102f40" stroke="none" stroke-width="1" opacity="1"/>
<text x="36" y="43" class="title inverse" text-anchor="start">Enterprise context</text>
<text x="1664" y="32" class="label inverse" text-anchor="end">VV-VIEW-01</text>
<text x="1664" y="57" class="small inverse" text-anchor="end">UAF 1.3 / SysML 1.6 | v0.3.0</text>
<rect x="315" y="125" width="1070" height="815" rx="12" fill="#e7eef0" stroke="#b9c8ce" stroke-width="1.2" opacity="1"/>
<text x="333" y="151" class="label" text-anchor="start">VEOVEO INSTALLATION BOUNDARY</text>
<text x="1367" y="151" class="small" text-anchor="end">Organization owned</text>
<rect x="610" y="185" width="470" height="130" rx="9" fill="#ffffff" stroke="#b8c7cd" stroke-width="1" opacity="1" filter="url(#shadow)"/>
<rect x="610" y="185" width="7" height="130" rx="7" fill="#2c8580" stroke="none" stroke-width="1" opacity="1"/>
<text x="628" y="208" class="node-id" text-anchor="start">VV-CMP-040</text>
<text x="628" y="232" class="node-title" text-anchor="start">
<tspan x="628" dy="0">Installation edge / ingress</tspan>
</text>
<text x="628" y="255" class="small" text-anchor="start">
<tspan x="628" dy="0">Publishes console, gateway, public-share, and required</tspan>
<tspan x="628" dy="16">provider routes.</tspan>
</text>
<rect x="390" y="365" width="390" height="165" rx="9" fill="#d9ebe7" stroke="#b8c7cd" stroke-width="1" opacity="1" filter="url(#shadow)"/>
<rect x="390" y="365" width="7" height="165" rx="7" fill="#2c8580" stroke="none" stroke-width="1" opacity="1"/>
<text x="408" y="388" class="node-id" text-anchor="start">VV-CMP-001</text>
<text x="408" y="412" class="node-title" text-anchor="start">
<tspan x="408" dy="0">MCP gateway</tspan>
</text>
<text x="408" y="435" class="small" text-anchor="start">
<tspan x="408" dy="0">OAuth, profiles, complete MCP projection,</tspan>
<tspan x="408" dy="16">policy, audit, internal identity, admin</tspan>
<tspan x="408" dy="16">proxy.</tspan>
</text>
<rect x="920" y="365" width="390" height="165" rx="9" fill="#deebf2" stroke="#b8c7cd" stroke-width="1" opacity="1" filter="url(#shadow)"/>
<rect x="920" y="365" width="7" height="165" rx="7" fill="#2c8580" stroke="none" stroke-width="1" opacity="1"/>
<text x="938" y="388" class="node-id" text-anchor="start">VV-CMP-002/003</text>
<text x="938" y="412" class="node-title" text-anchor="start">
<tspan x="938" dy="0">Operations console</tspan>
</text>
<text x="938" y="435" class="small" text-anchor="start">
<tspan x="938" dy="0">Secure browser session boundary and</tspan>
<tspan x="938" dy="16">operational application.</tspan>
</text>
<rect x="390" y="600" width="390" height="180" rx="9" fill="#eee5d8" stroke="#b8c7cd" stroke-width="1" opacity="1" filter="url(#shadow)"/>
<rect x="390" y="600" width="7" height="180" rx="7" fill="#2c8580" stroke="none" stroke-width="1" opacity="1"/>
<text x="408" y="623" class="node-id" text-anchor="start">VV-CMP-016..027/049/050/054/057/069</text>
<text x="408" y="647" class="node-title" text-anchor="start">
<tspan x="408" dy="0">Hosted domain servers</tspan>
</text>
<text x="408" y="670" class="small" text-anchor="start">
<tspan x="408" dy="0">Artifact, frames, analytics, media, map,</tspan>
<tspan x="408" dy="16">stream processing, recording, time, view,</tspan>
<tspan x="408" dy="16">UAV simulation, and other governed domains.</tspan>
</text>
<rect x="920" y="600" width="390" height="180" rx="9" fill="#e7e1ef" stroke="#b8c7cd" stroke-width="1" opacity="1" filter="url(#shadow)"/>
<rect x="920" y="600" width="7" height="180" rx="7" fill="#2c8580" stroke="none" stroke-width="1" opacity="1"/>
<text x="938" y="623" class="node-id" text-anchor="start">VV-CMP-004/005/038/039</text>
<text x="938" y="647" class="node-title" text-anchor="start">
<tspan x="938" dy="0">Durable data and evidence plane</tspan>
</text>
<text x="938" y="670" class="small" text-anchor="start">
<tspan x="938" dy="0">Artifact service and bytes, Recording Hub</tspan>
<tspan x="938" dy="16">and RRD, SurrealDB coordination authority.</tspan>
</text>
<rect x="610" y="830" width="470" height="80" rx="9" fill="#ffffff" stroke="#b8c7cd" stroke-width="1" opacity="1" filter="url(#shadow)"/>
<rect x="610" y="830" width="7" height="80" rx="7" fill="#2c8580" stroke="none" stroke-width="1" opacity="1"/>
<text x="628" y="853" class="node-id" text-anchor="start">VV-CMP-006/007</text>
<text x="628" y="877" class="node-title" text-anchor="start">
<tspan x="628" dy="0">Autonomous agents</tspan>
</text>
<text x="628" y="900" class="small" text-anchor="start">
<tspan x="628" dy="0">Bounded episodes use governed MCP and persist wakes,</tspan>
<tspan x="628" dy="16">work, and evidence.</tspan>
</text>
<rect x="35" y="180" width="250" height="135" rx="9" fill="#ffffff" stroke="#b8c7cd" stroke-width="1" opacity="1" filter="url(#shadow)"/>
<rect x="35" y="180" width="7" height="135" rx="7" fill="#2c8580" stroke="none" stroke-width="1" opacity="1"/>
<text x="53" y="203" class="node-id" text-anchor="start">EXT-1</text>
<text x="53" y="227" class="node-title" text-anchor="start">
<tspan x="53" dy="0">Operator / architect</tspan>
</text>
<text x="53" y="250" class="small" text-anchor="start">
<tspan x="53" dy="0">Browser administration and</tspan>
<tspan x="53" dy="16">formal review</tspan>
</text>
<rect x="35" y="430" width="250" height="135" rx="9" fill="#ffffff" stroke="#b8c7cd" stroke-width="1" opacity="1" filter="url(#shadow)"/>
<rect x="35" y="430" width="7" height="135" rx="7" fill="#2c8580" stroke="none" stroke-width="1" opacity="1"/>
<text x="53" y="453" class="node-id" text-anchor="start">EXT-2</text>
<text x="53" y="477" class="node-title" text-anchor="start">
<tspan x="53" dy="0">MCP client / agent</tspan>
</text>
<text x="53" y="500" class="small" text-anchor="start">
<tspan x="53" dy="0">Profile-scoped tools,</tspan>
<tspan x="53" dy="16">resources, prompts, tasks</tspan>
</text>
<rect x="35" y="715" width="250" height="135" rx="9" fill="#ffffff" stroke="#b8c7cd" stroke-width="1" opacity="1" filter="url(#shadow)"/>
<rect x="35" y="715" width="7" height="135" rx="7" fill="#2c8580" stroke="none" stroke-width="1" opacity="1"/>
<text x="53" y="738" class="node-id" text-anchor="start">EXT-3</text>
<text x="53" y="762" class="node-title" text-anchor="start">
<tspan x="53" dy="0">Sensor + recording</tspan>
<tspan x="53" dy="18">forwarder</tspan>
</text>
<text x="53" y="799" class="small" text-anchor="start">
<tspan x="53" dy="0">Producer-loopback Rerun and</tspan>
<tspan x="53" dy="16">OAuth-authenticated gateway</tspan>
<tspan x="53" dy="16">upload</tspan>
</text>
<rect x="1415" y="180" width="250" height="135" rx="9" fill="#ffffff" stroke="#b8c7cd" stroke-width="1" opacity="1" filter="url(#shadow)"/>
<rect x="1415" y="180" width="7" height="135" rx="7" fill="#2c8580" stroke="none" stroke-width="1" opacity="1"/>
<text x="1433" y="203" class="node-id" text-anchor="start">EXT-4</text>
<text x="1433" y="227" class="node-title" text-anchor="start">
<tspan x="1433" dy="0">Enterprise IdP</tspan>
</text>
<text x="1433" y="250" class="small" text-anchor="start">
<tspan x="1433" dy="0">OIDC identity, claims, keys</tspan>
</text>
<rect x="1415" y="430" width="250" height="135" rx="9" fill="#ffffff" stroke="#b8c7cd" stroke-width="1" opacity="1" filter="url(#shadow)"/>
<rect x="1415" y="430" width="7" height="135" rx="7" fill="#2c8580" stroke="none" stroke-width="1" opacity="1"/>
<text x="1433" y="453" class="node-id" text-anchor="start">EXT-5</text>
<text x="1433" y="477" class="node-title" text-anchor="start">
<tspan x="1433" dy="0">Media provider</tspan>
</text>
<text x="1433" y="500" class="small" text-anchor="start">
<tspan x="1433" dy="0">Submission API and signed</tspan>
<tspan x="1433" dy="16">terminal webhook</tspan>
</text>
<rect x="1415" y="715" width="250" height="135" rx="9" fill="#ffffff" stroke="#b8c7cd" stroke-width="1" opacity="1" filter="url(#shadow)"/>
<rect x="1415" y="715" width="7" height="135" rx="7" fill="#2c8580" stroke="none" stroke-width="1" opacity="1"/>
<text x="1433" y="738" class="node-id" text-anchor="start">EXT-6</text>
<text x="1433" y="762" class="node-title" text-anchor="start">
<tspan x="1433" dy="0">SIEM / operations</tspan>
</text>
<text x="1433" y="785" class="small" text-anchor="start">
<tspan x="1433" dy="0">Approved telemetry and audit</tspan>
<tspan x="1433" dy="16">evidence</tspan>
</text>
<path d="M 285 245 L 560 245 L 560 250 L 610 250" class="edge"/>
<path d="M 285 495 L 350 495 L 350 447 L 390 447" class="edge"/>
<path d="M 285 780 L 335 780 L 335 447 L 390 447" class="edge-muted"/>
<path d="M 1415 245 L 1160 245 L 1160 415 L 780 415" class="edge"/>
<path d="M 1415 495 L 1360 495 L 1360 690 L 780 690" class="edge"/>
<path d="M 1415 780 L 1360 780 L 1360 720 L 1310 720" class="edge-muted"/>
<path d="M 845 315 L 585 365" class="edge"/>
<path d="M 980 315 L 1115 365" class="edge"/>
<path d="M 585 530 L 585 600" class="edge"/>
<path d="M 1115 530 L 1115 600" class="edge"/>
<path d="M 780 690 L 920 690" class="edge"/>
<path d="M 780 447 L 850 447 L 850 690 L 920 690" class="edge"/>
<path d="M 845 830 L 585 780" class="edge-muted"/>
<rect x="28" y="1045" width="1644" height="1.2" rx="0" fill="#687983" stroke="none" stroke-width="1" opacity="1"/>
<text x="30" y="1066" class="tiny" text-anchor="start">Veoveo reference baseline - no client-specific data</text>
<text x="1670" y="1066" class="tiny" text-anchor="end">Revision 2026-08-21 | VV-VIEW-01</text>
</svg>
